# xmcd CD database file
#
# Track frame offsets:
#	150
#	11879
#	25562
#	37003
#	49228
#	60724
#	73076
#	86106
#	96946
#	110724
#	122367
#	134497
#	146529
#	159153
#	169651
#	181473
#	191976
#	203056
#	211725
#	223804
#	234883
#	244794
#	255916
#	265739
#	278795
#	291707
#	305146
#	316021
#	329420
#
# Disc length: 4570 seconds
#
# Revision: 1
# Processed by: cddbd v1.5.2PL0 Copyright (c) Steve Scherf et al.
# Submitted via: CDex 1.40Beta9
#
DISCID=b611d81d
DTITLE=Various Artist - The Complete Motown Singles Volume 4 [CD20)
DYEAR=2006
DGENRE=R&B/Soul
TTITLE0=The Supremes - Baby Love
TTITLE1=The Supremes - Ask Any Girl
TTITLE2=Mary Wells - Whisper You Love Me Baby
TTITLE3=Mary Wells - I'll Be Available
TTITLE4=Earl Van Dyke - Soul Stomp
TTITLE5=Earl Van Dyke - Hot 'N' Tot
TTITLE6=Marvin Gaye and Kim Weston - What Good Am I Without You
TTITLE7=Marvin Gaye and Kim Weston - I Want You 'Round
TTITLE8=Mickey McCullers - Who You Gonna Run To
TTITLE9=Mickey McCullers - Same Old Story (Alternate Mix)
TTITLE10=The Spinners - Sweet Thing
TTITLE11=The Spinners - How Can I
TTITLE12=The Majestics - Hello Love
TTITLE13=The Majestics - The Further You Look, The Less You See
TTITLE14=The Headliners - Tonight's The Night
TTITLE15=The Headliners - You're Bad News
TTITLE16=The Marvelettes - Too Many Fish In The Sea
TTITLE17=The Marvelettes - A Need For Love
TTITLE18=The Supremes - Come See About Me
TTITLE19=The Supremes - You're Gone (But Always In My Heart)
TTITLE20=Stevie Wonder - Pretty Little Angel (First Pressing)
TTITLE21=Stevie Wonder - Tears In Vain
TTITLE22=Stevie Wonder - Pretty Little Angel (Alternate Mix)
TTITLE23=Four Tops - Without The One You Love
TTITLE24=Four Tops - Love Has Gone
TTITLE25=Marvin Gaye - How Sweet It Is (To Be Loved By You)
TTITLE26=Marvin Gaye - Forever
TTITLE27=Kim Weston - A Little More Love
TTITLE28=Kim Weston - Go Ahead And Laugh
EXTD=YEAR: 2006
EXTT0=
EXTT1=
EXTT2=
EXTT3=
EXTT4=
EXTT5=
EXTT6=
EXTT7=
EXTT8=
EXTT9=
EXTT10=
EXTT11=
EXTT12=
EXTT13=
EXTT14=
EXTT15=
EXTT16=
EXTT17=
EXTT18=
EXTT19=
EXTT20=
EXTT21=
EXTT22=
EXTT23=
EXTT24=
EXTT25=
EXTT26=
EXTT27=
EXTT28=
PLAYORDER=
